<svg width="0" height="0" class="hidden">

  <symbol id="platzi" style="color:#98ca3f" viewBox="0 0 24 24" xmlns="http://www.w3.org/2000/svg"><path d="M10.64 1.13 2.49 9.28a3.84 3.84 0 0 0 0 5.44l8.15 8.15a3.84 3.84 0 0 0 5.44 0l2.72-2.71-2.72-2.72-2.72 2.72L5.2 12l8.16-8.16 5.44 5.44-5.44 5.44 2.72 2.72L21.5 12a3.84 3.84 0 0 0 0-5.44l-5.44-5.43a3.83 3.83 0 0 0-5.43 0z" fill="#98ca3f"/>
  </symbol>

  <symbol id="briefcase" xmlns="http://www.w3.org/2000/svg" viewBox="0 0 24 24"  fill="none"  stroke="currentColor"  stroke-width="2"  stroke-linecap="round"  stroke-linejoin="round"  class="icon icon-tabler icons-tabler-outline icon-tabler-briefcase"><path stroke="none" d="M0 0h24v24H0z" fill="none"/><path d="M3 7m0 2a2 2 0 0 1 2 -2h14a2 2 0 0 1 2 2v9a2 2 0 0 1 -2 2h-14a2 2 0 0 1 -2 -2z" /><path d="M8 7v-2a2 2 0 0 1 2 -2h4a2 2 0 0 1 2 2v2" /><path d="M12 12l0 .01" /><path d="M3 13a20 20 0 0 0 18 0" /></symbol>

  <symbol id="handshake" xmlns="http://www.w3.org/2000/svg"  viewBox="0 0 24 24"  fill="none"  stroke="currentColor"  stroke-width="2"  stroke-linecap="round"  stroke-linejoin="round"  class="icon icon-tabler icons-tabler-outline icon-tabler-heart-handshake"><path stroke="none" d="M0 0h24v24H0z" fill="none"/><path d="M19.5 12.572l-7.5 7.428l-7.5 -7.428a5 5 0 1 1 7.5 -6.566a5 5 0 1 1 7.5 6.572" /><path d="M12 6l-3.293 3.293a1 1 0 0 0 0 1.414l.543 .543c.69 .69 1.81 .69 2.5 0l1 -1a3.182 3.182 0 0 1 4.5 0l2.25 2.25" /><path d="M12.5 15.5l2 2" /><path d="M15 13l2 2" /></symbol>

  <symbol id="external-link" xmlns="http://www.w3.org/2000/svg" viewBox="0 0 24 24" fill="none" stroke="currentColor" stroke-width="2" stroke-linecap="round" stroke-linejoin="round"><path d="M15 3h6v6"></path><path d="M10 14 21 3"></path><path d="M18 13v6a2 2 0 0 1-2 2H5a2 2 0 0 1-2-2V8a2 2 0 0 1 2-2h6"></path>
  </symbol>

  <symbol id="github" viewBox="0 0 1024 1024" fill="none" xmlns="http://www.w3.org/2000/svg"><path fill-rule="evenodd" clip-rule="evenodd" d="M8 0C3.58 0 0 3.58 0 8C0 11.54 2.29 14.53 5.47 15.59C5.87 15.66 6.02 15.42 6.02 15.21C6.02 15.02 6.01 14.39 6.01 13.72C4 14.09 3.48 13.23 3.32 12.78C3.23 12.55 2.84 11.84 2.5 11.65C2.22 11.5 1.82 11.13 2.49 11.12C3.12 11.11 3.57 11.7 3.72 11.94C4.44 13.15 5.59 12.81 6.05 12.6C6.12 12.08 6.33 11.73 6.56 11.53C4.78 11.33 2.92 10.64 2.92 7.58C2.92 6.71 3.23 5.99 3.74 5.43C3.66 5.23 3.38 4.41 3.82 3.31C3.82 3.31 4.49 3.1 6.02 4.13C6.66 3.95 7.34 3.86 8.02 3.86C8.7 3.86 9.38 3.95 10.02 4.13C11.55 3.09 12.22 3.31 12.22 3.31C12.66 4.41 12.38 5.23 12.3 5.43C12.81 5.99 13.12 6.7 13.12 7.58C13.12 10.65 11.25 11.33 9.47 11.53C9.76 11.78 10.01 12.26 10.01 13.01C10.01 14.08 10 14.94 10 15.21C10 15.42 10.15 15.67 10.55 15.59C13.71 14.53 16 11.53 16 8C16 3.58 12.42 0 8 0Z" transform="scale(64)" fill="#ffff"/></symbol>

  <symbol id="open-book" xmlns="http://www.w3.org/2000/svg" viewBox="0 0 24 24"  fill="none"  stroke="currentColor"  stroke-width="2"  stroke-linecap="round"  stroke-linejoin="round"  class="icon icon-tabler icons-tabler-outline icon-tabler-book"><path stroke="none" d="M0 0h24v24H0z" fill="none"/><path d="M3 19a9 9 0 0 1 9 0a9 9 0 0 1 9 0" /><path d="M3 6a9 9 0 0 1 9 0a9 9 0 0 1 9 0" /><path d="M3 6l0 13" /><path d="M12 6l0 13" /><path d="M21 6l0 13" /></symbol>

  <symbol id="mail" xmlns="http://www.w3.org/2000/svg" viewBox="0 0 24 24"  fill="none"  stroke="currentColor"  stroke-width="2"  stroke-linecap="round"  stroke-linejoin="round"  class="icon icon-tabler icons-tabler-outline icon-tabler-mail"><path stroke="none" d="M0 0h24v24H0z" fill="none"/><path d="M3 7a2 2 0 0 1 2 -2h14a2 2 0 0 1 2 2v10a2 2 0 0 1 -2 2h-14a2 2 0 0 1 -2 -2v-10z" /><path d="M3 7l9 6l9 -6" /></symbol>

  <symbol id="star" xmlns="http://www.w3.org/2000/svg" viewBox="0 0 24 24"  fill="none"  stroke="currentColor"  stroke-width="2"  stroke-linecap="round"  stroke-linejoin="round"  class="icon icon-tabler icons-tabler-outline icon-tabler-star"><path stroke="none" d="M0 0h24v24H0z" fill="none"/><path d="M12 17.75l-6.172 3.245l1.179 -6.873l-5 -4.867l6.9 -1l3.086 -6.253l3.086 6.253l6.9 1l-5 4.867l1.179 6.873z" /></symbol>

  <symbol id="map-pin" xmlns="http://www.w3.org/2000/svg"  width="24"  height="24"  viewBox="0 0 24 24"  fill="none"  stroke="currentColor"  stroke-width="2"  stroke-linecap="round"  stroke-linejoin="round"  class="icon icon-tabler icons-tabler-outline icon-tabler-map-pin"><path stroke="none" d="M0 0h24v24H0z" fill="none"/><path d="M9 11a3 3 0 1 0 6 0a3 3 0 0 0 -6 0" /><path d="M17.657 16.657l-4.243 4.243a2 2 0 0 1 -2.827 0l-4.244 -4.243a8 8 0 1 1 11.314 0z" /></symbol>

  <symbol id="coffee" xmlns="http://www.w3.org/2000/svg"  width="24"  height="24"  viewBox="0 0 24 24"  fill="none"  stroke="currentColor"  stroke-width="2"  stroke-linecap="round"  stroke-linejoin="round"  class="icon icon-tabler icons-tabler-outline icon-tabler-coffee"><path stroke="none" d="M0 0h24v24H0z" fill="none"/><path d="M3 14c.83 .642 2.077 1.017 3.5 1c1.423 .017 2.67 -.358 3.5 -1c.83 -.642 2.077 -1.017 3.5 -1c1.423 -.017 2.67 .358 3.5 1" /><path d="M8 3a2.4 2.4 0 0 0 -1 2a2.4 2.4 0 0 0 1 2" /><path d="M12 3a2.4 2.4 0 0 0 -1 2a2.4 2.4 0 0 0 1 2" /><path d="M3 10h14v5a6 6 0 0 1 -6 6h-2a6 6 0 0 1 -6 -6v-5z" /><path d="M16.746 16.726a3 3 0 1 0 .252 -5.555" /></symbol>

  <symbol id="calendar" xmlns="http://www.w3.org/2000/svg"  width="24"  height="24"  viewBox="0 0 24 24"  fill="currentColor"  class="icon icon-tabler icons-tabler-filled icon-tabler-calendar-week"><path stroke="none" d="M0 0h24v24H0z" fill="none"/><path d="M16 2c.183 0 .355 .05 .502 .135l.033 .02c.28 .177 .465 .49 .465 .845v1h1a3 3 0 0 1 2.995 2.824l.005 .176v12a3 3 0 0 1 -2.824 2.995l-.176 .005h-12a3 3 0 0 1 -2.995 -2.824l-.005 -.176v-12a3 3 0 0 1 2.824 -2.995l.176 -.005h1v-1a1 1 0 0 1 .514 -.874l.093 -.046l.066 -.025l.1 -.029l.107 -.019l.12 -.007q .083 0 .161 .013l.122 .029l.04 .012l.06 .023c.328 .135 .568 .44 .61 .806l.007 .117v1h6v-1a1 1 0 0 1 1 -1m3 7h-14v9.625c0 .705 .386 1.286 .883 1.366l.117 .009h12c.513 0 .936 -.53 .993 -1.215l.007 -.16z" /><path d="M9.015 13a1 1 0 0 1 -1 1a1.001 1.001 0 1 1 -.005 -2c.557 0 1.005 .448 1.005 1" /><path d="M13.015 13a1 1 0 0 1 -1 1a1.001 1.001 0 1 1 -.005 -2c.557 0 1.005 .448 1.005 1" /><path d="M17.02 13a1 1 0 0 1 -1 1a1.001 1.001 0 1 1 -.005 -2c.557 0 1.005 .448 1.005 1" /><path d="M12.02 15a1 1 0 0 1 0 2a1.001 1.001 0 1 1 -.005 -2z" /><path d="M9.015 16a1 1 0 0 1 -1 1a1.001 1.001 0 1 1 -.005 -2c.557 0 1.005 .448 1.005 1" /></symbol>

  <symbol>
    <svg id="utils" xmlns="http://www.w3.org/2000/svg" viewBox="0 0 24 24"  fill="none"  stroke="currentColor"  stroke-width="2"  stroke-linecap="round"  stroke-linejoin="round"  class="icon icon-tabler icons-tabler-outline icon-tabler-tool"><path stroke="none" d="M0 0h24v24H0z" fill="none"/><path d="M7 10h3v-3l-3.5 -3.5a6 6 0 0 1 8 8l6 6a2 2 0 0 1 -3 3l-6 -6a6 6 0 0 1 -8 -8l3.5 3.5" /></svg>
  </symbol>

</svg>